<mxfile host="app.diagrams.net" modified="2023-07-27T07:20:39.441Z" agent="Mozilla/5.0 (Windows NT 10.0; Win64; x64) AppleWebKit/537.36 (KHTML, like Gecko) Chrome/114.0.0.0 Safari/537.36" etag="sXw3AXuuz9LR_OOS_9K2" version="21.6.5" type="github">
  <diagram name="Page-1" id="FMTkFIGNAamR_CjVJADN">
    <mxGraphModel dx="1900" dy="1673" grid="1" gridSize="10" guides="1" tooltips="1" connect="1" arrows="1" fold="1" page="1" pageScale="1" pageWidth="850" pageHeight="1100" math="0" shadow="0">
      <root>
        <mxCell id="0" />
        <mxCell id="1" parent="0" />
        <mxCell id="3FPNQ6X9gkTqrYlX-bIj-1" value="&lt;h1&gt;Customer&lt;/h1&gt;" style="shape=umlActor;verticalLabelPosition=bottom;verticalAlign=top;html=1;outlineConnect=0;" vertex="1" parent="1">
          <mxGeometry x="40" y="280" width="30" height="60" as="geometry" />
        </mxCell>
        <mxCell id="3FPNQ6X9gkTqrYlX-bIj-3" value="&lt;h1&gt;Browse Product&lt;/h1&gt;" style="ellipse;whiteSpace=wrap;html=1;" vertex="1" parent="1">
          <mxGeometry x="170" y="50" width="120" height="80" as="geometry" />
        </mxCell>
        <mxCell id="3FPNQ6X9gkTqrYlX-bIj-4" value="&lt;h1&gt;Manage Cart&lt;/h1&gt;" style="ellipse;whiteSpace=wrap;html=1;" vertex="1" parent="1">
          <mxGeometry x="170" y="160" width="120" height="80" as="geometry" />
        </mxCell>
        <mxCell id="3FPNQ6X9gkTqrYlX-bIj-5" value="&lt;h1&gt;Buy&lt;/h1&gt;" style="ellipse;whiteSpace=wrap;html=1;" vertex="1" parent="1">
          <mxGeometry x="170" y="280" width="120" height="80" as="geometry" />
        </mxCell>
        <mxCell id="3FPNQ6X9gkTqrYlX-bIj-6" value="&lt;h1&gt;Manage Order&lt;/h1&gt;" style="ellipse;whiteSpace=wrap;html=1;" vertex="1" parent="1">
          <mxGeometry x="170" y="580" width="120" height="80" as="geometry" />
        </mxCell>
        <mxCell id="3FPNQ6X9gkTqrYlX-bIj-7" value="&lt;h1&gt;Add to Cart&lt;/h1&gt;" style="ellipse;whiteSpace=wrap;html=1;" vertex="1" parent="1">
          <mxGeometry x="380" width="120" height="80" as="geometry" />
        </mxCell>
        <mxCell id="3FPNQ6X9gkTqrYlX-bIj-8" value="&lt;h1&gt;Update Cart&lt;/h1&gt;" style="ellipse;whiteSpace=wrap;html=1;" vertex="1" parent="1">
          <mxGeometry x="380" y="120" width="120" height="80" as="geometry" />
        </mxCell>
        <mxCell id="3FPNQ6X9gkTqrYlX-bIj-9" value="&lt;h1&gt;Delete Cart&lt;/h1&gt;" style="ellipse;whiteSpace=wrap;html=1;" vertex="1" parent="1">
          <mxGeometry x="380" y="230" width="120" height="80" as="geometry" />
        </mxCell>
        <mxCell id="3FPNQ6X9gkTqrYlX-bIj-10" value="&lt;h1&gt;Checkout&lt;/h1&gt;" style="ellipse;whiteSpace=wrap;html=1;" vertex="1" parent="1">
          <mxGeometry x="380" y="340" width="120" height="80" as="geometry" />
        </mxCell>
        <mxCell id="3FPNQ6X9gkTqrYlX-bIj-11" value="&lt;h1&gt;Confirm Order&lt;/h1&gt;" style="ellipse;whiteSpace=wrap;html=1;" vertex="1" parent="1">
          <mxGeometry x="380" y="480" width="120" height="80" as="geometry" />
        </mxCell>
        <mxCell id="3FPNQ6X9gkTqrYlX-bIj-12" value="&lt;h1&gt;Check order state&lt;/h1&gt;" style="ellipse;whiteSpace=wrap;html=1;" vertex="1" parent="1">
          <mxGeometry x="365" y="650" width="150" height="90" as="geometry" />
        </mxCell>
        <mxCell id="3FPNQ6X9gkTqrYlX-bIj-13" value="&lt;h1&gt;Login&lt;/h1&gt;" style="ellipse;whiteSpace=wrap;html=1;" vertex="1" parent="1">
          <mxGeometry x="710" y="660" width="90" height="50" as="geometry" />
        </mxCell>
        <mxCell id="3FPNQ6X9gkTqrYlX-bIj-14" value="&lt;h1&gt;Delivery Man&lt;/h1&gt;" style="shape=umlActor;verticalLabelPosition=bottom;verticalAlign=top;html=1;outlineConnect=0;" vertex="1" parent="1">
          <mxGeometry x="60" y="960" width="30" height="60" as="geometry" />
        </mxCell>
        <mxCell id="3FPNQ6X9gkTqrYlX-bIj-16" value="&lt;h1&gt;Description&lt;/h1&gt;" style="ellipse;whiteSpace=wrap;html=1;" vertex="1" parent="1">
          <mxGeometry x="640" y="975" width="150" height="90" as="geometry" />
        </mxCell>
        <mxCell id="3FPNQ6X9gkTqrYlX-bIj-17" value="&lt;h1&gt;Select Action&lt;/h1&gt;" style="ellipse;whiteSpace=wrap;html=1;" vertex="1" parent="1">
          <mxGeometry x="190" y="945" width="150" height="90" as="geometry" />
        </mxCell>
        <mxCell id="3FPNQ6X9gkTqrYlX-bIj-18" value="&lt;h1&gt;Deliver&lt;/h1&gt;" style="ellipse;whiteSpace=wrap;html=1;" vertex="1" parent="1">
          <mxGeometry x="365" y="890" width="120" height="60" as="geometry" />
        </mxCell>
        <mxCell id="3FPNQ6X9gkTqrYlX-bIj-19" value="&lt;h1&gt;Not Deliver&lt;/h1&gt;" style="ellipse;whiteSpace=wrap;html=1;" vertex="1" parent="1">
          <mxGeometry x="440" y="990" width="120" height="60" as="geometry" />
        </mxCell>
        <mxCell id="3FPNQ6X9gkTqrYlX-bIj-20" value="&lt;h1&gt;Not Pick up&lt;/h1&gt;" style="ellipse;whiteSpace=wrap;html=1;" vertex="1" parent="1">
          <mxGeometry x="340" y="1070" width="130" height="70" as="geometry" />
        </mxCell>
        <mxCell id="3FPNQ6X9gkTqrYlX-bIj-21" value="&lt;h1&gt;Pick Up&lt;/h1&gt;" style="ellipse;whiteSpace=wrap;html=1;" vertex="1" parent="1">
          <mxGeometry x="170" y="770" width="120" height="60" as="geometry" />
        </mxCell>
        <mxCell id="3FPNQ6X9gkTqrYlX-bIj-22" value="&lt;h1&gt;Admin&lt;/h1&gt;" style="shape=umlActor;verticalLabelPosition=bottom;verticalAlign=top;html=1;outlineConnect=0;" vertex="1" parent="1">
          <mxGeometry x="1470" y="320" width="30" height="60" as="geometry" />
        </mxCell>
        <mxCell id="3FPNQ6X9gkTqrYlX-bIj-23" value="&lt;h1&gt;Manage Order&lt;/h1&gt;" style="ellipse;whiteSpace=wrap;html=1;" vertex="1" parent="1">
          <mxGeometry x="1060" y="720" width="120" height="80" as="geometry" />
        </mxCell>
        <mxCell id="3FPNQ6X9gkTqrYlX-bIj-24" value="&lt;h1&gt;Manage Category&lt;/h1&gt;" style="ellipse;whiteSpace=wrap;html=1;" vertex="1" parent="1">
          <mxGeometry x="1020" y="120" width="120" height="80" as="geometry" />
        </mxCell>
        <mxCell id="3FPNQ6X9gkTqrYlX-bIj-25" value="&lt;h1&gt;Hire new member &amp;amp; delivery staff&lt;/h1&gt;" style="ellipse;whiteSpace=wrap;html=1;" vertex="1" parent="1">
          <mxGeometry x="985" y="410" width="190" height="160" as="geometry" />
        </mxCell>
        <mxCell id="3FPNQ6X9gkTqrYlX-bIj-26" value="&lt;h1&gt;Manage Product&lt;/h1&gt;" style="ellipse;whiteSpace=wrap;html=1;" vertex="1" parent="1">
          <mxGeometry x="1020" y="-20" width="120" height="80" as="geometry" />
        </mxCell>
        <mxCell id="3FPNQ6X9gkTqrYlX-bIj-27" value="&lt;h1&gt;Add , delete &amp;amp; update product&lt;/h1&gt;" style="ellipse;whiteSpace=wrap;html=1;" vertex="1" parent="1">
          <mxGeometry x="700" y="-70" width="220" height="80" as="geometry" />
        </mxCell>
        <mxCell id="3FPNQ6X9gkTqrYlX-bIj-28" value="&lt;h1&gt;Mange Revenue&lt;/h1&gt;" style="ellipse;whiteSpace=wrap;html=1;" vertex="1" parent="1">
          <mxGeometry x="1020" y="260" width="120" height="80" as="geometry" />
        </mxCell>
        <mxCell id="3FPNQ6X9gkTqrYlX-bIj-29" value="&lt;h1&gt;Add , delete &amp;amp; update category&lt;/h1&gt;" style="ellipse;whiteSpace=wrap;html=1;" vertex="1" parent="1">
          <mxGeometry x="700" y="80" width="220" height="80" as="geometry" />
        </mxCell>
        <mxCell id="3FPNQ6X9gkTqrYlX-bIj-30" value="&lt;h1&gt;Check profit &amp;amp; loss&lt;/h1&gt;" style="ellipse;whiteSpace=wrap;html=1;" vertex="1" parent="1">
          <mxGeometry x="700" y="220" width="220" height="80" as="geometry" />
        </mxCell>
        <mxCell id="3FPNQ6X9gkTqrYlX-bIj-31" value="&lt;h1&gt;verify payment&lt;/h1&gt;" style="ellipse;whiteSpace=wrap;html=1;" vertex="1" parent="1">
          <mxGeometry x="880" y="740" width="120" height="80" as="geometry" />
        </mxCell>
        <mxCell id="3FPNQ6X9gkTqrYlX-bIj-32" value="&lt;h1 style=&quot;border-color: var(--border-color);&quot;&gt;verify payment&lt;/h1&gt;" style="ellipse;whiteSpace=wrap;html=1;" vertex="1" parent="1">
          <mxGeometry x="900" y="865" width="120" height="80" as="geometry" />
        </mxCell>
        <mxCell id="3FPNQ6X9gkTqrYlX-bIj-33" value="&lt;h1 style=&quot;border-color: var(--border-color);&quot;&gt;Choose service or set delivery man&lt;/h1&gt;" style="ellipse;whiteSpace=wrap;html=1;" vertex="1" parent="1">
          <mxGeometry x="1040" y="920" width="210" height="140" as="geometry" />
        </mxCell>
        <mxCell id="3FPNQ6X9gkTqrYlX-bIj-34" value="&lt;h1&gt;Staff&lt;/h1&gt;" style="shape=umlActor;verticalLabelPosition=bottom;verticalAlign=top;html=1;outlineConnect=0;" vertex="1" parent="1">
          <mxGeometry x="1480" y="1000" width="30" height="60" as="geometry" />
        </mxCell>
        <mxCell id="3FPNQ6X9gkTqrYlX-bIj-35" value="&lt;h1&gt;Validate Customer&lt;/h1&gt;" style="ellipse;whiteSpace=wrap;html=1;" vertex="1" parent="1">
          <mxGeometry x="190" y="1230" width="150" height="90" as="geometry" />
        </mxCell>
        <mxCell id="3FPNQ6X9gkTqrYlX-bIj-36" value="&lt;h1&gt;Handle Costs&lt;/h1&gt;" style="ellipse;whiteSpace=wrap;html=1;" vertex="1" parent="1">
          <mxGeometry x="1060" y="1190" width="120" height="80" as="geometry" />
        </mxCell>
        <mxCell id="3FPNQ6X9gkTqrYlX-bIj-37" value="&lt;h1&gt;Entry daily cost&lt;/h1&gt;" style="ellipse;whiteSpace=wrap;html=1;" vertex="1" parent="1">
          <mxGeometry x="910" y="1320" width="140" height="80" as="geometry" />
        </mxCell>
        <mxCell id="3FPNQ6X9gkTqrYlX-bIj-38" value="&lt;h1&gt;Check new costs&lt;/h1&gt;" style="ellipse;whiteSpace=wrap;html=1;" vertex="1" parent="1">
          <mxGeometry x="1200" y="1320" width="140" height="80" as="geometry" />
        </mxCell>
        <mxCell id="3FPNQ6X9gkTqrYlX-bIj-42" value="" style="endArrow=none;html=1;rounded=0;entryX=0.5;entryY=0.5;entryDx=0;entryDy=0;entryPerimeter=0;exitX=-0.017;exitY=0.588;exitDx=0;exitDy=0;exitPerimeter=0;" edge="1" parent="1" source="3FPNQ6X9gkTqrYlX-bIj-3" target="3FPNQ6X9gkTqrYlX-bIj-1">
          <mxGeometry width="50" height="50" relative="1" as="geometry">
            <mxPoint x="330" y="-50" as="sourcePoint" />
            <mxPoint x="110" y="260" as="targetPoint" />
          </mxGeometry>
        </mxCell>
        <mxCell id="3FPNQ6X9gkTqrYlX-bIj-44" value="" style="endArrow=none;html=1;rounded=0;entryX=0.5;entryY=0.5;entryDx=0;entryDy=0;entryPerimeter=0;exitX=0;exitY=0.5;exitDx=0;exitDy=0;" edge="1" parent="1" source="3FPNQ6X9gkTqrYlX-bIj-4" target="3FPNQ6X9gkTqrYlX-bIj-1">
          <mxGeometry width="50" height="50" relative="1" as="geometry">
            <mxPoint x="270" y="270" as="sourcePoint" />
            <mxPoint x="320" y="220" as="targetPoint" />
          </mxGeometry>
        </mxCell>
        <mxCell id="3FPNQ6X9gkTqrYlX-bIj-45" value="" style="endArrow=none;html=1;rounded=0;exitX=0.5;exitY=0.5;exitDx=0;exitDy=0;exitPerimeter=0;entryX=0;entryY=0.5;entryDx=0;entryDy=0;" edge="1" parent="1" source="3FPNQ6X9gkTqrYlX-bIj-1" target="3FPNQ6X9gkTqrYlX-bIj-5">
          <mxGeometry width="50" height="50" relative="1" as="geometry">
            <mxPoint x="270" y="270" as="sourcePoint" />
            <mxPoint x="160" y="310" as="targetPoint" />
          </mxGeometry>
        </mxCell>
      </root>
    </mxGraphModel>
  </diagram>
</mxfile>
